<svg width="600" height="400" viewBox="0 0 600 400" fill="none" xmlns="http://www.w3.org/2000/svg">
  <defs>
    <linearGradient id="umkmBg" x1="0" y1="0" x2="600" y2="400" gradientUnits="userSpaceOnUse">
      <stop offset="0%" stop-color="#312e81" />
      <stop offset="50%" stop-color="#1e1b4b" />
      <stop offset="100%" stop-color="#0f172a" />
    </linearGradient>
  </defs>

  <rect width="600" height="400" rx="20" fill="url(#umkmBg)" />

  <!-- Laptop / Screen mockup -->
  <rect x="150" y="90" width="300" height="190" rx="14" fill="#1e293b" stroke="#6366f1" stroke-width="2" />
  <rect x="170" y="110" width="260" height="150" rx="8" fill="#0f172a" />
  
  <!-- Screen Elements -->
  <rect x="190" y="130" width="100" height="12" rx="6" fill="#ca8a04" />
  <rect x="190" y="152" width="220" height="8" rx="4" fill="#475569" />
  <rect x="190" y="166" width="180" height="8" rx="4" fill="#475569" />
  
  <!-- Product cards mockup on screen -->
  <rect x="190" y="185" width="65" height="55" rx="6" fill="#1e293b" stroke="#334155" />
  <rect x="268" y="185" width="65" height="55" rx="6" fill="#1e293b" stroke="#334155" />
  <rect x="345" y="185" width="65" height="55" rx="6" fill="#1e293b" stroke="#334155" />

  <!-- Laptop Base -->
  <path d="M110 280 L490 280 L520 300 L80 300 Z" fill="#334155" />
  <rect x="250" y="280" width="100" height="6" rx="3" fill="#64748b" />

  <!-- Overlay Tag -->
  <g transform="translate(24, 24)">
    <rect width="170" height="32" rx="16" fill="rgba(15, 23, 42, 0.85)" stroke="rgba(255, 255, 255, 0.2)" />
    <text x="85" y="20" fill="#a855f7" font-family="system-ui, sans-serif" font-size="11" font-weight="700" text-anchor="middle">
      💡 Ekonomi & UMKM
    </text>
  </g>
</svg>
